<?xml version="1.0" encoding="UTF-8" standalone="no"?>
<svg
   xmlns:dc="http://purl.org/dc/elements/1.1/"
   xmlns:cc="http://creativecommons.org/ns#"
   xmlns:rdf="http://www.w3.org/1999/02/22-rdf-syntax-ns#"
   xmlns:svg="http://www.w3.org/2000/svg"
   xmlns="http://www.w3.org/2000/svg"
   xmlns:sodipodi="http://sodipodi.sourceforge.net/DTD/sodipodi-0.dtd"
   xmlns:inkscape="http://www.inkscape.org/namespaces/inkscape"
   width="137.58333mm"
   height="34.395832mm"
   viewBox="0 0 137.58333 34.395832"
   version="1.1"
   id="svg8"
   inkscape:version="1.0.1 (3bc2e813f5, 2020-09-07)"
   sodipodi:docname="lrotondownload.svg">
  <defs
     id="defs2" />
  <sodipodi:namedview
     id="base"
     pagecolor="#ffffff"
     bordercolor="#666666"
     borderopacity="1.0"
     inkscape:pageopacity="0.0"
     inkscape:pageshadow="2"
     inkscape:zoom="1.4"
     inkscape:cx="268.03747"
     inkscape:cy="61.202291"
     inkscape:document-units="mm"
     inkscape:current-layer="layer1"
     inkscape:document-rotation="0"
     showgrid="false"
     inkscape:window-width="1366"
     inkscape:window-height="705"
     inkscape:window-x="0"
     inkscape:window-y="30"
     inkscape:window-maximized="1"
     inkscape:pagecheckerboard="true" />
  <metadata
     id="metadata5">
    <rdf:RDF>
      <cc:Work
         rdf:about="">
        <dc:format>image/svg+xml</dc:format>
        <dc:type
           rdf:resource="http://purl.org/dc/dcmitype/StillImage" />
        <dc:title></dc:title>
      </cc:Work>
    </rdf:RDF>
  </metadata>
  <g
     inkscape:label="Layer 1"
     inkscape:groupmode="layer"
     id="layer1"
     transform="translate(-9.967,-73.973038)">
    <rect
       style="fill:#9bdb4d;fill-opacity:1;fill-rule:evenodd;stroke-width:0.264583"
       id="rect10"
       width="137.58333"
       height="34.395832"
       x="9.967"
       y="73.973038"
       rx="2.6458333"
       ry="2.6458333" />
    <text
       xml:space="preserve"
       style="font-style:normal;font-weight:normal;font-size:11.2889px;line-height:1.25;font-family:sans-serif;fill:#333333;fill-opacity:1;stroke:none;stroke-width:0.264583"
       x="14.972031"
       y="95.145218"
       id="text855"><tspan
         sodipodi:role="line"
         id="tspan853"
         x="14.972031"
         y="95.145218"
         style="font-style:normal;font-variant:normal;font-weight:bold;font-stretch:normal;font-size:11.2889px;font-family:Arial;-inkscape-font-specification:'Arial Bold';fill:#333333;stroke-width:0.264583">Download Lroton</tspan></text>
    <g
       id="g936"
       transform="matrix(0.04134115,0,0,0.04134115,112.03085,80.58762)"
       style="fill:#333333">
      <g
         id="g861"
         style="fill:#333333">
	<g
   id="g859"
   style="fill:#333333">
		<path
   d="M 484.078,27.923 C 466.072,9.918 442.131,0.002 416.667,0.002 L 95.334,0 C 42.766,0.003 0,42.77 0.001,95.334 L 0,416.668 C 0.001,469.234 42.768,512 95.335,512 H 416.667 C 469.234,512 512,469.234 512,416.667 V 95.335 C 512,69.87 502.084,45.929 484.078,27.923 Z M 482,416.667 C 482,452.692 452.692,482 416.667,482 H 95.335 C 59.31,482 30.001,452.691 30,416.667 L 30.001,95.333 C 30,59.31 59.309,30.002 95.335,30 l 321.332,0.002 c 17.451,0 33.858,6.795 46.198,19.134 C 475.205,61.476 482,77.883 482,95.335 Z"
   id="path857"
   style="fill:#333333" />

	</g>

</g>
      <g
         id="g867"
         style="fill:#333333">
	<g
   id="g865"
   style="fill:#333333">
		<path
   d="m 346.131,217.492 c -5.857,-5.857 -15.355,-5.858 -21.213,0 L 271,271.412 270.999,111.4 c 0,-8.284 -6.716,-15 -15,-15 -8.284,0 -15,6.716 -15,15 L 241,271.415 187.078,217.494 c -5.857,-5.858 -15.355,-5.858 -21.213,0 -5.858,5.858 -5.858,15.355 0,21.213 l 79.528,79.526 c 2.813,2.814 6.628,4.394 10.606,4.394 3.978,0 7.794,-1.581 10.607,-4.394 l 79.526,-79.528 c 5.857,-5.858 5.857,-15.355 -0.001,-21.213 z"
   id="path863"
   style="fill:#333333" />

	</g>

</g>
      <g
         id="g873"
         style="fill:#333333">
	<g
   id="g871"
   style="fill:#333333">
		<path
   d="m 400.602,385.601 h -289.2 c -8.284,0 -15,6.716 -15,15 0,8.284 6.716,15 15,15 h 289.2 c 8.284,0 15,-6.716 15,-15 0,-8.285 -6.716,-15 -15,-15 z"
   id="path869"
   style="fill:#333333" />

	</g>

</g>
      <g
         id="g875"
         style="fill:#333333">
</g>
      <g
         id="g877"
         style="fill:#333333">
</g>
      <g
         id="g879"
         style="fill:#333333">
</g>
      <g
         id="g881"
         style="fill:#333333">
</g>
      <g
         id="g883"
         style="fill:#333333">
</g>
      <g
         id="g885"
         style="fill:#333333">
</g>
      <g
         id="g887"
         style="fill:#333333">
</g>
      <g
         id="g889"
         style="fill:#333333">
</g>
      <g
         id="g891"
         style="fill:#333333">
</g>
      <g
         id="g893"
         style="fill:#333333">
</g>
      <g
         id="g895"
         style="fill:#333333">
</g>
      <g
         id="g897"
         style="fill:#333333">
</g>
      <g
         id="g899"
         style="fill:#333333">
</g>
      <g
         id="g901"
         style="fill:#333333">
</g>
      <g
         id="g903"
         style="fill:#333333">
</g>
    </g>
    <text
       xml:space="preserve"
       style="font-style:normal;font-weight:normal;font-size:6.35px;line-height:1.25;font-family:sans-serif;fill:#333333;fill-opacity:1;stroke:none;stroke-width:0.264583"
       x="44.305618"
       y="102.10196"
       id="text940"><tspan
         sodipodi:role="line"
         id="tspan938"
         x="44.305618"
         y="102.10196"
         style="font-style:normal;font-variant:normal;font-weight:bold;font-stretch:normal;font-size:6.35px;font-family:Arial;-inkscape-font-specification:'Arial Bold';fill:#333333;stroke-width:0.264583">version 0.1.0</tspan></text>
  </g>
</svg>
